<?xml version="1.0" encoding="iso-8859-1"?>
<!-- Generator: Adobe Illustrator 19.0.0, SVG Export Plug-In . SVG Version: 6.00 Build 0)  -->
<svg version="1.1" id="Layer_1" xmlns="http://www.w3.org/2000/svg" xmlns:xlink="http://www.w3.org/1999/xlink" x="0px" y="0px"
	 viewBox="0 0 512 512" style="enable-background:new 0 0 512 512;" xml:space="preserve">
<path style="fill:#FF7876;" d="M391.901,212.264l-92.147-92.147c29.878-5.539,60.683-4.939,90.381,1.766
	C396.84,151.581,397.439,182.386,391.901,212.264z"/>
<path style="fill:#FFDA79;" d="M368.43,278.605L233.412,143.587c20.956-11.436,43.379-19.251,66.326-23.487l92.178,92.178
	C387.679,235.225,379.866,257.649,368.43,278.605z"/>
<path style="fill:#80D0E1;" d="M329.991,329.978L182.039,182.026c15.598-15.598,32.932-28.41,51.373-38.44L368.43,278.605
	C358.401,297.046,345.588,314.38,329.991,329.978z"/>
<path style="fill:#FF7876;" d="M329.991,329.978c-15.598,15.598-32.932,28.412-51.373,38.44L143.586,233.383
	c10.045-18.426,22.857-35.76,38.455-51.357L329.991,329.978z"/>
<path style="fill:#FFDA79;" d="M278.618,368.417c-20.956,11.436-43.365,19.264-66.326,23.485l-92.178-92.178
	c4.22-22.962,12.049-45.369,23.487-66.326L278.618,368.417z"/>
<path style="fill:#80D0E1;" d="M212.291,391.902c-29.892,5.524-60.683,4.939-90.397-1.781c-6.72-29.682-7.305-60.503-1.781-90.397
	L212.291,391.902z"/>
<path style="fill:#58595B;" d="M508.222,172.908c-29.856-29.854-66.857-51.073-107.423-61.693
	C390.18,70.649,368.956,33.643,339.093,3.779c-5.035-5.037-13.199-5.035-18.235-0.002c-5.037,5.035-5.037,13.199-0.002,18.233
	c23.6,23.602,41.121,52.206,51.392,83.575c-153.905-20.81-287.74,110.92-266.653,266.659
	c-31.367-10.258-59.977-27.778-83.586-51.385c-5.034-5.034-13.198-5.035-18.233,0.002c-5.035,5.035-5.035,13.199,0.002,18.233
	c29.872,29.872,66.884,51.091,107.45,61.693c10.602,40.566,31.816,77.572,61.679,107.435c5.035,5.035,13.198,5.037,18.233,0.002
	c5.037-5.035,5.037-13.199,0.002-18.233c-23.598-23.598-41.111-52.201-51.367-83.567c72.121,9.761,146.115-14.105,199.331-67.331
	c0,0,0.002-0.003,0.003-0.003c53.666-53.662,76.986-127.848,67.321-199.326c31.367,10.268,59.968,27.784,83.562,51.376
	c5.034,5.034,13.196,5.035,18.233-0.002C513.259,186.107,513.259,177.943,508.222,172.908z M379.221,132.796
	c3.187,17.141,4.239,34.438,3.153,51.704l-54.857-54.857C344.785,128.56,362.078,129.61,379.221,132.796z M364.825,256.765
	L255.252,147.192c12.895-5.692,26.361-10.074,40.252-13.091l82.413,82.413C374.897,230.406,370.517,243.872,364.825,256.765z
	 M329.715,311.466L200.549,182.3c9.567-8.475,19.844-16.043,30.721-22.62l121.068,121.068
	C345.76,291.624,338.191,301.903,329.715,311.466z M216.53,377.907l-82.42-82.42c3.007-13.872,7.391-27.338,13.093-40.25
	L256.78,364.814C243.866,370.518,230.402,374.9,216.53,377.907z M132.805,379.21c-3.189-17.122-4.245-34.42-3.158-51.715
	l54.873,54.873C167.227,383.454,149.935,382.397,132.805,379.21z M280.76,352.324L159.684,231.248
	c6.589-10.879,14.16-21.152,22.631-30.712l129.166,129.166C301.915,338.18,291.637,345.749,280.76,352.324z"/>
<g>
</g>
<g>
</g>
<g>
</g>
<g>
</g>
<g>
</g>
<g>
</g>
<g>
</g>
<g>
</g>
<g>
</g>
<g>
</g>
<g>
</g>
<g>
</g>
<g>
</g>
<g>
</g>
<g>
</g>
</svg>
